<?xml version="1.0" encoding="iso-8859-1"?>
<!-- Generator: Adobe Illustrator 24.1.0, SVG Export Plug-In . SVG Version: 6.00 Build 0)  -->
<svg version="1.1" id="Layer_1" xmlns="http://www.w3.org/2000/svg" xmlns:xlink="http://www.w3.org/1999/xlink" x="0px" y="0px"
	 viewBox="0 0 48 48" style="enable-background:new 0 0 48 48;" xml:space="preserve">
<path style="fill:#185ABD;" d="M24.48,29.316l-9.505,9.505L1.588,25.434c-0.784-0.784-0.784-2.054,0-2.838l6.667-6.667
	c0.784-0.784,2.054-0.784,2.838,0L24.48,29.316z"/>
<linearGradient id="SVGID_1_" gradientUnits="userSpaceOnUse" x1="14.5722" y1="38.1986" x2="43.1878" y2="9.5829">
	<stop  offset="0" style="stop-color:#4191FD"/>
	<stop  offset="1" style="stop-color:#55ACFD"/>
</linearGradient>
<path style="fill:url(#SVGID_1_);" d="M17.797,41.642l-6.667-6.667c-0.784-0.784-0.784-2.054,0-2.838L36.907,6.358
	c0.784-0.784,2.054-0.784,2.838,0l6.667,6.667c0.784,0.784,0.784,2.054,0,2.838L20.634,41.642
	C19.851,42.425,18.58,42.425,17.797,41.642z"/>
</svg>